<?xml version="1.0" encoding="utf-8"?>
<!-- Generator: Adobe Illustrator 16.0.0, SVG Export Plug-In . SVG Version: 6.00 Build 0)  -->
<!DOCTYPE svg PUBLIC "-//W3C//DTD SVG 1.1//EN" "http://www.w3.org/Graphics/SVG/1.1/DTD/svg11.dtd">
<svg version="1.1" id="Layer_1" xmlns="http://www.w3.org/2000/svg" xmlns:xlink="http://www.w3.org/1999/xlink" x="0px" y="0px"
	 width="568px" height="93px" viewBox="11.5 52.5 568 93" enable-background="new 11.5 52.5 568 93" xml:space="preserve">
<g>
	<path fill="#F9B800" d="M53.057,103.02l-11.698-4.905l23.094-22.189c-4.679-8.075-7.623-16.679-7.623-16.679
		S52,75.547,42.34,85.208c-9.208,9.208-25.962,14.491-25.962,14.491s16.754,5.281,25.962,14.49c0,0-1.283,6.414-5.208,17.961
		L53.057,103.02z"/>
	
		<linearGradient id="SVGID_1_" gradientUnits="userSpaceOnUse" x1="302.8779" y1="567.9961" x2="309.0511" y2="610.4965" gradientTransform="matrix(0.7547 0 0 0.7547 -191.7548 -365.563)">
		<stop  offset="0.6956" style="stop-color:#FFFFFF;stop-opacity:0"/>
		<stop  offset="1" style="stop-color:#FFFFFF"/>
	</linearGradient>
	<path opacity="0.6" fill="url(#SVGID_1_)" enable-background="new    " d="M64.453,75.924c-4.679-8.075-7.623-16.679-7.623-16.679
		S52,75.547,42.34,85.208c-9.208,9.208-25.962,14.491-25.962,14.491C47.849,93.887,64.453,75.924,64.453,75.924z"/>
	<path fill="#565656" d="M71.321,85.208c-0.453-0.453-0.906-0.981-1.358-1.509c0,0,1.887-8.151,5.509-18.34L60.076,93.132
		l11.094,4.227l-23.321,23.849c5.585,8.756,8.981,18.942,8.981,18.942s5.51-16.979,14.491-25.961
		c9.509-9.51,25.962-14.49,25.962-14.49S79.773,93.736,71.321,85.208z"/>
	
		<linearGradient id="SVGID_2_" gradientUnits="userSpaceOnUse" x1="353.4375" y1="676.3291" x2="349.2504" y2="616.7581" gradientTransform="matrix(0.7547 0 0 0.7547 -191.7548 -365.563)">
		<stop  offset="0.6956" style="stop-color:#FFFFFF;stop-opacity:0"/>
		<stop  offset="1" style="stop-color:#FFFFFF"/>
	</linearGradient>
	<path opacity="0.6" fill="url(#SVGID_2_)" enable-background="new    " d="M47.849,121.207c5.585,8.756,8.981,18.943,8.981,18.943
		s5.51-16.98,14.491-25.963c9.509-9.508,25.962-14.489,25.962-14.489C73.887,102.113,47.849,121.207,47.849,121.207z"/>
</g>
<rect x="112.076" y="77.208" fill="none" width="630.565" height="154.716"/>
<g enable-background="new    ">
	<path fill="#565656" d="M115.761,82.281c0-1.108,0.349-2.029,1.047-2.762c0.697-0.733,1.695-1.1,2.992-1.1
		c1.297,0,2.299,0.367,3.007,1.1s1.062,1.654,1.062,2.762c0,1.09-0.354,1.996-1.062,2.719s-1.71,1.084-3.007,1.084
		c-1.297,0-2.295-0.361-2.992-1.084C116.11,84.277,115.761,83.371,115.761,82.281z M123.368,122.494h-7.164V90.595h7.164V122.494z"
		/>
	<path fill="#565656" d="M162.872,85.583h-13.384v36.911h-7.4V85.583h-13.267v-6.014h34.051V85.583z"/>
	<path fill="#565656" d="M196.215,122.494h-28.862v-4.924l14.298-15.596c2.064-2.3,3.533-4.221,4.408-5.764
		c0.874-1.543,1.312-3.091,1.312-4.644c0-2.044-0.575-3.695-1.725-4.953c-1.149-1.258-2.697-1.887-4.643-1.887
		c-2.319,0-4.118,0.708-5.395,2.123c-1.278,1.415-1.917,3.351-1.917,5.808h-7.164c0-2.614,0.594-4.967,1.783-7.061
		c1.189-2.094,2.889-3.719,5.101-4.879c2.211-1.159,4.761-1.739,7.65-1.739c4.167,0,7.454,1.046,9.861,3.14
		c2.407,2.093,3.611,4.987,3.611,8.682c0,2.143-0.604,4.388-1.813,6.737s-3.189,5.017-5.94,8.004l-10.496,11.231h19.93
		L196.215,122.494L196.215,122.494z"/>
</g>
<g enable-background="new    ">
	<path fill="#F9B800" d="M247.136,85.583h-13.384v36.911h-7.4V85.583h-13.267v-6.014h34.051V85.583z"/>
	<path fill="#F9B800" d="M263.498,123.084c-4.54,0-8.221-1.432-11.041-4.29s-4.23-6.667-4.23-11.424v-0.886
		c0-3.184,0.614-6.028,1.843-8.534c1.228-2.506,2.953-4.457,5.174-5.852c2.221-1.396,4.697-2.093,7.429-2.093
		c4.344,0,7.699,1.386,10.068,4.157c2.368,2.771,3.553,6.691,3.553,11.764v2.889h-20.843c0.216,2.635,1.095,4.718,2.639,6.25
		c1.542,1.533,3.483,2.301,5.822,2.301c3.282,0,5.955-1.327,8.019-3.98l3.862,3.686c-1.278,1.906-2.982,3.387-5.115,4.438
		C268.543,122.559,266.151,123.084,263.498,123.084z M262.643,95.754c-1.966,0-3.553,0.688-4.761,2.063
		c-1.209,1.376-1.98,3.292-2.314,5.75h13.65v-0.53c-0.158-2.397-0.796-4.211-1.917-5.439
		C266.18,96.369,264.627,95.754,262.643,95.754z"/>
	<path fill="#F9B800" d="M294.954,117.364c1.788,0,3.272-0.521,4.452-1.562c1.18-1.04,1.808-2.329,1.886-3.862h6.751
		c-0.078,1.985-0.697,3.838-1.857,5.559c-1.158,1.72-2.73,3.08-4.717,4.083c-1.985,1.002-4.127,1.504-6.426,1.504
		c-4.462,0-8-1.444-10.613-4.334c-2.614-2.89-3.921-6.879-3.921-11.97v-0.737c0-4.854,1.297-8.741,3.892-11.66
		c2.594-2.918,6.132-4.378,10.613-4.378c3.793,0,6.884,1.105,9.271,3.317c2.389,2.211,3.642,5.115,3.759,8.712h-6.751
		c-0.078-1.828-0.703-3.332-1.872-4.511c-1.169-1.179-2.658-1.769-4.466-1.769c-2.319,0-4.108,0.84-5.366,2.521
		c-1.258,1.681-1.897,4.231-1.916,7.651v1.149c0,3.46,0.624,6.039,1.872,7.738C290.793,116.516,292.596,117.364,294.954,117.364z"/>
	<path fill="#F9B800" d="M320.514,94.074c2.34-2.712,5.297-4.068,8.875-4.068c6.799,0,10.25,3.882,10.348,11.645v20.845h-7.163
		v-20.578c0-2.201-0.478-3.759-1.431-4.673s-2.354-1.371-4.201-1.371c-2.869,0-5.012,1.278-6.428,3.833v22.79h-7.162V77.21h7.162
		V94.074L320.514,94.074z"/>
	<path fill="#F9B800" d="M353.621,90.595l0.207,3.685c2.357-2.85,5.454-4.275,9.286-4.275c6.643,0,10.022,3.803,10.142,11.41v21.079
		h-7.164v-20.667c0-2.024-0.438-3.523-1.312-4.496s-2.305-1.459-4.289-1.459c-2.889,0-5.041,1.308-6.456,3.921v22.701h-7.164V90.595
		H353.621z"/>
	<path fill="#F9B800" d="M379.211,106.25c0-3.125,0.619-5.941,1.857-8.447c1.236-2.506,2.978-4.432,5.218-5.778
		c2.239-1.346,4.815-2.02,7.724-2.02c4.306,0,7.799,1.386,10.481,4.157s4.132,6.447,4.349,11.025l0.029,1.682
		c0,3.145-0.604,5.955-1.813,8.432s-2.938,4.393-5.188,5.749c-2.251,1.354-4.851,2.034-7.798,2.034
		c-4.502,0-8.104-1.499-10.805-4.496c-2.703-2.997-4.055-6.992-4.055-11.984V106.25z M386.375,106.869
		c0,3.281,0.678,5.852,2.034,7.709c1.354,1.857,3.241,2.786,5.659,2.786s4.3-0.943,5.646-2.83c1.346-1.888,2.021-4.648,2.021-8.284
		c0-3.225-0.692-5.779-2.078-7.666c-1.387-1.887-3.269-2.83-5.646-2.83c-2.339,0-4.196,0.929-5.571,2.786
		C387.062,100.397,386.375,103.174,386.375,106.869z"/>
	<path fill="#F9B800" d="M422.548,122.494h-7.164V77.21h7.164V122.494z"/>
	<path fill="#F9B800" d="M429.005,106.25c0-3.125,0.619-5.941,1.857-8.447c1.237-2.506,2.978-4.432,5.218-5.778
		c2.241-1.346,4.814-2.02,7.725-2.02c4.305,0,7.798,1.386,10.48,4.157s4.132,6.447,4.349,11.025l0.029,1.682
		c0,3.145-0.604,5.955-1.813,8.432s-2.938,4.393-5.188,5.749c-2.251,1.354-4.85,2.034-7.798,2.034
		c-4.501,0-8.104-1.499-10.806-4.496s-4.054-6.992-4.054-11.984V106.25L429.005,106.25z M436.169,106.869
		c0,3.281,0.678,5.852,2.034,7.709c1.354,1.857,3.243,2.786,5.66,2.786s4.299-0.943,5.646-2.83c1.347-1.888,2.021-4.648,2.021-8.284
		c0-3.225-0.692-5.779-2.078-7.666s-3.269-2.83-5.646-2.83c-2.34,0-4.196,0.929-5.571,2.786
		C436.856,100.397,436.169,103.174,436.169,106.869z"/>
	<path fill="#F9B800" d="M463.468,106.309c0-4.953,1.165-8.908,3.494-11.866s5.419-4.437,9.271-4.437
		c3.636,0,6.495,1.268,8.578,3.803l0.324-3.213h6.456v30.925c0,4.187-1.302,7.487-3.906,9.905
		c-2.604,2.417-6.116,3.626-10.539,3.626c-2.339,0-4.623-0.486-6.854-1.459s-3.926-2.246-5.085-3.818l3.39-4.303
		c2.201,2.612,4.913,3.92,8.138,3.92c2.378,0,4.255-0.645,5.631-1.931c1.376-1.288,2.063-3.18,2.063-5.676v-2.152
		c-2.063,2.3-4.815,3.45-8.255,3.45c-3.733,0-6.786-1.484-9.153-4.452C464.653,115.664,463.468,111.557,463.468,106.309z
		 M470.603,106.928c0,3.204,0.653,5.725,1.962,7.562c1.307,1.838,3.118,2.756,5.438,2.756c2.89,0,5.031-1.238,6.428-3.715V99.499
		c-1.355-2.417-3.479-3.626-6.368-3.626c-2.357,0-4.19,0.934-5.497,2.801C471.256,100.541,470.603,103.292,470.603,106.928z"/>
	<path fill="#F9B800" d="M498.964,82.281c0-1.108,0.349-2.029,1.046-2.762s1.695-1.1,2.992-1.1c1.298,0,2.3,0.367,3.008,1.1
		c0.707,0.733,1.062,1.654,1.062,2.762c0,1.09-0.354,1.996-1.062,2.719c-0.708,0.723-1.71,1.084-3.008,1.084
		c-1.297,0-2.295-0.361-2.992-1.084S498.964,83.371,498.964,82.281z M506.569,122.494h-7.164V90.595h7.164V122.494z"/>
	<path fill="#F9B800" d="M528.415,123.084c-4.54,0-8.221-1.432-11.04-4.29c-2.82-2.858-4.23-6.667-4.23-11.424v-0.886
		c0-3.184,0.613-6.028,1.843-8.534c1.229-2.506,2.953-4.457,5.175-5.852c2.221-1.396,4.696-2.093,7.429-2.093
		c4.344,0,7.699,1.386,10.068,4.157c2.368,2.771,3.552,6.691,3.552,11.764v2.889h-20.843c0.216,2.635,1.096,4.718,2.639,6.25
		c1.542,1.533,3.483,2.301,5.822,2.301c3.282,0,5.955-1.327,8.019-3.98l3.862,3.686c-1.277,1.906-2.982,3.387-5.115,4.438
		C533.461,122.559,531.068,123.084,528.415,123.084z M527.561,95.754c-1.966,0-3.553,0.688-4.762,2.063
		c-1.208,1.376-1.979,3.292-2.312,5.75h13.648v-0.53c-0.157-2.397-0.796-4.211-1.916-5.439S529.545,95.754,527.561,95.754z"/>
	<path fill="#F9B800" d="M564.646,113.826c0-1.277-0.525-2.25-1.576-2.918c-1.053-0.668-2.797-1.258-5.233-1.77
		s-4.471-1.16-6.103-1.945c-3.577-1.729-5.365-4.235-5.365-7.519c0-2.751,1.159-5.051,3.479-6.898
		c2.319-1.847,5.269-2.771,8.846-2.771c3.812,0,6.894,0.943,9.241,2.83c2.35,1.887,3.523,4.334,3.523,7.341h-7.164
		c0-1.375-0.512-2.521-1.533-3.435s-2.379-1.371-4.067-1.371c-1.573,0-2.855,0.364-3.849,1.091s-1.487,1.7-1.487,2.918
		c0,1.101,0.461,1.957,1.386,2.565c0.923,0.609,2.79,1.224,5.601,1.843c2.812,0.619,5.018,1.356,6.619,2.211s2.79,1.883,3.567,3.081
		c0.774,1.199,1.164,2.652,1.164,4.363c0,2.869-1.189,5.193-3.567,6.972s-5.493,2.669-9.346,2.669c-2.614,0-4.942-0.473-6.986-1.416
		c-2.045-0.943-3.637-2.24-4.776-3.891c-1.14-1.651-1.71-3.43-1.71-5.338h6.958c0.099,1.691,0.736,2.994,1.916,3.906
		c1.18,0.914,2.741,1.371,4.688,1.371c1.887,0,3.32-0.357,4.304-1.076C564.156,115.925,564.646,114.986,564.646,113.826z"/>
</g>
</svg>
